<svg xmlns="http://www.w3.org/2000/svg" xmlns:svg="http://www.w3.org/2000/svg" xmlns:xlink="http://www.w3.org/1999/xlink" id="svg2180" width="400" height="400" version="1.0"><g style="opacity:1;display:inline" id="layer1"><g style="stroke:#a9a9a9;stroke-opacity:1" id="g8191"><path style="fill:none;fill-rule:evenodd;stroke:#a9a9a9;stroke-width:1px;stroke-linecap:butt;stroke-linejoin:miter;stroke-opacity:1" id="path1872" d="M 20,0 L 20,400"/><use style="stroke:#a9a9a9;stroke-opacity:1" id="use8185" width="400" height="400" x="0" y="0" transform="translate(20,0)" xlink:href="#path1872"/><use style="stroke:#a9a9a9;stroke-opacity:1" id="use8187" width="400" height="400" x="0" y="0" transform="translate(40,0)" xlink:href="#path1872"/><use style="stroke:#a9a9a9;stroke-opacity:1" id="use8189" width="400" height="400" x="0" y="0" transform="translate(60,0)" xlink:href="#path1872"/></g><use id="use8197" width="400" height="400" x="0" y="0" transform="translate(100,0)" xlink:href="#g8191"/><use id="use8199" width="400" height="400" x="0" y="0" transform="translate(200,0)" xlink:href="#g8191"/><use id="use8201" width="400" height="400" x="0" y="0" transform="translate(300,0)" xlink:href="#g8191"/><use id="use8203" width="400" height="400" x="0" y="0" transform="matrix(0,1,-1,0,400,0)" xlink:href="#g8191"/><use id="use8205" width="400" height="400" x="0" y="0" transform="translate(0,100)" xlink:href="#use8203"/><use id="use8207" width="400" height="400" x="0" y="0" transform="translate(0,200)" xlink:href="#use8203"/><use id="use8209" width="400" height="400" x="0" y="0" transform="translate(0,300)" xlink:href="#use8203"/></g><g style="display:inline" id="layer2"><g style="stroke:#366;stroke-opacity:1" id="g8225"><path style="fill:none;fill-rule:evenodd;stroke:#366;stroke-width:1px;stroke-linecap:butt;stroke-linejoin:miter;stroke-opacity:1" id="path8215" d="M 100,0 L 100,400"/><use style="stroke:#366;stroke-opacity:1" id="use8217" width="400" height="400" x="0" y="0" transform="translate(100,0)" xlink:href="#path8215"/><use style="stroke:#366;stroke-opacity:1" id="use8219" width="400" height="400" x="0" y="0" transform="translate(200,0)" xlink:href="#path8215"/></g><use id="use8232" width="400" height="400" x="0" y="0" transform="matrix(0,1,-1,0,400,0)" xlink:href="#g8225"/></g><g id="layer3"><rect style="fill:none;stroke:#366;stroke-opacity:1" id="rect10078" width="399" height="399" x=".5" y=".5"/></g></svg>